<svg xmlns="http://www.w3.org/2000/svg" xmlns:xlink="http://www.w3.org/1999/xlink" width="1230" zoomAndPan="magnify" viewBox="0 0 922.5 262.499992" height="350" preserveAspectRatio="xMidYMid meet" version="1.0"><defs><g/><clipPath id="a3656a70bc"><rect x="0" width="576" y="0" height="226"/></clipPath><clipPath id="a72f6af210"><path d="M 66.394531 9.382812 L 274.5625 9.382812 L 274.5625 217.554688 L 66.394531 217.554688 Z M 66.394531 9.382812 " clip-rule="nonzero"/></clipPath><clipPath id="4e502731e0"><path d="M 170.480469 9.382812 C 112.996094 9.382812 66.394531 55.984375 66.394531 113.46875 C 66.394531 170.953125 112.996094 217.554688 170.480469 217.554688 C 227.964844 217.554688 274.5625 170.953125 274.5625 113.46875 C 274.5625 55.984375 227.964844 9.382812 170.480469 9.382812 Z M 170.480469 9.382812 " clip-rule="nonzero"/></clipPath><clipPath id="0c5bf3f780"><path d="M 170.480469 9.382812 C 112.996094 9.382812 66.394531 55.984375 66.394531 113.46875 C 66.394531 170.953125 112.996094 217.554688 170.480469 217.554688 C 227.964844 217.554688 274.5625 170.953125 274.5625 113.46875 C 274.5625 55.984375 227.964844 9.382812 170.480469 9.382812 Z M 170.480469 9.382812 " clip-rule="nonzero"/></clipPath></defs><g transform="matrix(1, 0, 0, 1, 286, 33)"><g clip-path="url(#a3656a70bc)"><g fill="#66735a" fill-opacity="1"><g transform="translate(0.94831, 169.839513)"><g><path d="M 26.421875 -130.765625 C 21.578125 -130.765625 17.351562 -132.523438 13.75 -136.046875 C 10.15625 -139.578125 8.359375 -143.765625 8.359375 -148.609375 C 8.359375 -153.003906 10.15625 -156.960938 13.75 -160.484375 C 17.351562 -164.015625 21.578125 -165.78125 26.421875 -165.78125 C 31.703125 -165.78125 36.140625 -164.054688 39.734375 -160.609375 C 43.328125 -157.160156 45.125 -153.160156 45.125 -148.609375 C 45.125 -143.765625 43.328125 -139.578125 39.734375 -136.046875 C 36.140625 -132.523438 31.703125 -130.765625 26.421875 -130.765625 Z M 42.265625 -111.171875 L 42.265625 0 L 11 0 L 11 -111.171875 Z M 42.265625 -111.171875 "/></g></g></g><g fill="#66735a" fill-opacity="1"><g transform="translate(43.216786, 169.839513)"><g><path d="M 123.0625 -55.484375 L 123.0625 0 L 92.03125 0 L 92.03125 -55.484375 C 92.03125 -64.429688 89.789062 -71.144531 85.3125 -75.625 C 80.832031 -80.101562 75.363281 -82.34375 68.90625 -82.34375 C 62.007812 -82.34375 55.84375 -80.101562 50.40625 -75.625 C 44.976562 -71.144531 42.265625 -64.429688 42.265625 -55.484375 L 42.265625 0 L 11 0 L 11 -111.171875 L 42.265625 -111.171875 L 42.265625 -103.46875 C 45.347656 -106.988281 49.75 -109.554688 55.46875 -111.171875 C 61.195312 -112.785156 66.554688 -113.59375 71.546875 -113.59375 C 81.671875 -113.59375 90.625 -110.988281 98.40625 -105.78125 C 106.1875 -100.570312 112.238281 -93.5625 116.5625 -84.75 C 120.894531 -75.945312 123.0625 -66.191406 123.0625 -55.484375 Z M 123.0625 -55.484375 "/></g></g></g><g fill="#66735a" fill-opacity="1"><g transform="translate(164.738787, 169.839513)"><g><path d="M 39.625 -44.6875 C 29.5 -46.15625 21.207031 -50.046875 14.75 -56.359375 C 8.289062 -62.671875 5.0625 -70.523438 5.0625 -79.921875 C 5.0625 -86.378906 6.96875 -92.140625 10.78125 -97.203125 C 14.601562 -102.265625 19.335938 -106.257812 24.984375 -109.1875 C 30.640625 -112.125 36.179688 -113.59375 41.609375 -113.59375 C 55.703125 -113.59375 66.785156 -107.796875 74.859375 -96.203125 L 52.390625 -79.921875 C 50.929688 -81.234375 49.394531 -82.332031 47.78125 -83.21875 C 46.164062 -84.101562 44.328125 -84.546875 42.265625 -84.546875 C 40.210938 -84.546875 38.597656 -83.992188 37.421875 -82.890625 C 36.253906 -81.785156 35.671875 -80.425781 35.671875 -78.8125 C 35.671875 -76.90625 36.515625 -75.398438 38.203125 -74.296875 C 39.890625 -73.203125 43.003906 -72.359375 47.546875 -71.765625 C 57.828125 -70.453125 66.414062 -66.96875 73.3125 -61.3125 C 80.207031 -55.664062 83.65625 -47.117188 83.65625 -35.671875 C 83.65625 -28.179688 81.75 -21.570312 77.9375 -15.84375 C 74.125 -10.125 69.023438 -5.648438 62.640625 -2.421875 C 56.253906 0.804688 49.023438 2.421875 40.953125 2.421875 C 32.734375 2.421875 25.503906 0.988281 19.265625 -1.875 C 13.023438 -4.738281 7.484375 -8.882812 2.640625 -14.3125 L 29.0625 -33.46875 C 32.144531 -30.238281 36.179688 -28.625 41.171875 -28.625 C 44.109375 -28.625 46.234375 -29.351562 47.546875 -30.8125 C 48.867188 -32.28125 49.53125 -34.046875 49.53125 -36.109375 C 49.53125 -38.304688 48.757812 -40.140625 47.21875 -41.609375 C 45.675781 -43.078125 43.144531 -44.101562 39.625 -44.6875 Z M 39.625 -44.6875 "/></g></g></g><g fill="#66735a" fill-opacity="1"><g transform="translate(242.231035, 169.839513)"><g><path d="M 123.0625 -55.484375 L 123.0625 0 L 92.03125 0 L 92.03125 -55.484375 C 92.03125 -64.429688 89.789062 -71.144531 85.3125 -75.625 C 80.832031 -80.101562 75.363281 -82.34375 68.90625 -82.34375 C 64.351562 -82.34375 60.019531 -81.203125 55.90625 -78.921875 C 51.800781 -76.648438 48.5 -73.492188 46 -69.453125 C 43.507812 -65.421875 42.265625 -60.765625 42.265625 -55.484375 L 42.265625 0 L 11 0 L 11 -164.015625 L 42.265625 -164.015625 L 42.265625 -103.25 C 45.203125 -106.914062 49.566406 -109.554688 55.359375 -111.171875 C 61.160156 -112.785156 66.554688 -113.59375 71.546875 -113.59375 C 81.671875 -113.59375 90.625 -110.988281 98.40625 -105.78125 C 106.1875 -100.570312 112.238281 -93.5625 116.5625 -84.75 C 120.894531 -75.945312 123.0625 -66.191406 123.0625 -55.484375 Z M 123.0625 -55.484375 "/></g></g></g><g fill="#66735a" fill-opacity="1"><g transform="translate(363.753049, 169.839513)"><g><path d="M 26.421875 -130.765625 C 21.578125 -130.765625 17.351562 -132.523438 13.75 -136.046875 C 10.15625 -139.578125 8.359375 -143.765625 8.359375 -148.609375 C 8.359375 -153.003906 10.15625 -156.960938 13.75 -160.484375 C 17.351562 -164.015625 21.578125 -165.78125 26.421875 -165.78125 C 31.703125 -165.78125 36.140625 -164.054688 39.734375 -160.609375 C 43.328125 -157.160156 45.125 -153.160156 45.125 -148.609375 C 45.125 -143.765625 43.328125 -139.578125 39.734375 -136.046875 C 36.140625 -132.523438 31.703125 -130.765625 26.421875 -130.765625 Z M 42.265625 -111.171875 L 42.265625 0 L 11 0 L 11 -111.171875 Z M 42.265625 -111.171875 "/></g></g></g><g fill="#66735a" fill-opacity="1"><g transform="translate(406.021513, 169.839513)"><g><path d="M 42.265625 53.0625 L 11 53.0625 L 11 -111.171875 L 42.265625 -111.171875 L 42.265625 -103.46875 C 44.765625 -106.113281 48.65625 -108.460938 53.9375 -110.515625 C 59.21875 -112.566406 64.351562 -113.59375 69.34375 -113.59375 C 79.625 -113.59375 88.875 -110.988281 97.09375 -105.78125 C 105.3125 -100.570312 111.84375 -93.597656 116.6875 -84.859375 C 121.53125 -76.128906 123.953125 -66.484375 123.953125 -55.921875 C 123.953125 -45.203125 121.457031 -35.4375 116.46875 -26.625 C 111.476562 -17.820312 104.796875 -10.78125 96.421875 -5.5 C 88.054688 -0.21875 78.8125 2.421875 68.6875 2.421875 C 64.132812 2.421875 59.328125 1.578125 54.265625 -0.109375 C 49.203125 -1.796875 45.203125 -4.398438 42.265625 -7.921875 Z M 66.265625 -82.34375 C 59.078125 -82.34375 53.0625 -79.847656 48.21875 -74.859375 C 43.375 -69.867188 40.953125 -63.484375 40.953125 -55.703125 C 40.953125 -47.773438 43.375 -41.28125 48.21875 -36.21875 C 53.0625 -31.15625 59.078125 -28.625 66.265625 -28.625 C 73.453125 -28.625 79.578125 -31.15625 84.640625 -36.21875 C 89.710938 -41.28125 92.25 -47.773438 92.25 -55.703125 C 92.25 -63.484375 89.710938 -69.867188 84.640625 -74.859375 C 79.578125 -79.847656 73.453125 -82.34375 66.265625 -82.34375 Z M 66.265625 -82.34375 "/></g></g></g><g fill="#66735a" fill-opacity="1"><g transform="translate(525.342057, 169.839513)"><g><path d="M 30.15625 -30.828125 C 35.289062 -30.828125 39.398438 -29.175781 42.484375 -25.875 C 45.566406 -22.570312 47.109375 -18.570312 47.109375 -13.875 C 47.109375 -9.320312 45.566406 -5.394531 42.484375 -2.09375 C 39.398438 1.207031 35.289062 2.859375 30.15625 2.859375 C 25.164062 2.859375 21.09375 1.207031 17.9375 -2.09375 C 14.78125 -5.394531 13.203125 -9.320312 13.203125 -13.875 C 13.203125 -18.570312 14.78125 -22.570312 17.9375 -25.875 C 21.09375 -29.175781 25.164062 -30.828125 30.15625 -30.828125 Z M 30.15625 -30.828125 "/></g></g></g></g></g><g clip-path="url(#a72f6af210)"><g clip-path="url(#4e502731e0)"><g clip-path="url(#0c5bf3f780)"><path fill="#66735a" d="M 66.394531 9.382812 L 274.5625 9.382812 L 274.5625 217.554688 L 66.394531 217.554688 Z M 66.394531 9.382812 " fill-opacity="1" fill-rule="nonzero"/></g></g></g><path fill="#ffffff" d="M 262.046875 93.425781 L 203.109375 152.601562 L 267.84375 217.335938 L 212.773438 217.335938 L 163.257812 167.820312 L 163.257812 217.335938 L 120.503906 217.335938 L 120.503906 9.613281 L 163.257812 9.613281 L 163.257812 136.660156 L 206.492188 93.425781 Z M 262.046875 93.425781 " fill-opacity="1" fill-rule="nonzero"/></svg>